<svg width="363" height="606" viewBox="0 0 363 606" fill="none" xmlns="http://www.w3.org/2000/svg">
<rect x="0.771973" width="361.97" height="606" rx="20" fill="url(#paint0_linear_39_3458)"/>
<mask id="mask0_39_3458" style="mask-type:alpha" maskUnits="userSpaceOnUse" x="0" y="0" width="363" height="606">
<rect x="0.771973" width="361.97" height="606" rx="20" fill="#09143C"/>
</mask>
<g mask="url(#mask0_39_3458)">
<path fill-rule="evenodd" clip-rule="evenodd" d="M175.906 462.27C159.141 452.165 132.78 452.175 115.643 470.719C111.012 475.73 107.203 480.265 103.744 484.382L103.742 484.383C101.971 486.492 100.292 488.491 98.641 490.388C93.7777 495.979 89.1887 500.656 83.3211 504.511C71.5829 512.223 54.8184 516.584 20.6767 518.639C3.80077 519.655 -7.21485 528.462 -12.5455 540.933C-13.3862 542.9 -14.0859 544.959 -14.6447 547.095C-8.63929 539.666 0.42086 534.775 12.5477 534.045C44.9648 532.093 60.6713 527.954 71.5975 520.772C77.0622 517.179 81.3539 512.811 85.9547 507.52C87.5036 505.738 89.0905 503.849 90.7694 501.849C94.0655 497.924 97.7162 493.577 102.13 488.798C118.777 470.775 144.352 470.785 160.614 480.592C168.754 485.5 174.615 492.895 175.823 501.772C177.032 510.656 173.563 520.903 163.294 531.475C157.06 537.893 156.553 547.848 157.469 559.599C157.724 562.877 158.09 566.29 158.465 569.789C159.426 578.748 160.448 588.27 159.829 597.529C159.146 607.754 156.464 617.722 149.497 626.387C152.406 624.644 154.995 622.796 157.296 620.858C169.5 610.584 173.69 597.726 174.586 584.322C175.231 574.679 174.171 564.806 173.163 555.414L173.163 555.414V555.414V555.414C172.766 551.711 172.377 548.083 172.103 544.573C171.141 532.244 171.604 521.315 178.521 514.197C189.178 503.23 192.642 492.751 191.425 483.807C190.206 474.855 184.28 467.317 175.906 462.27ZM-13.4651 540.54C-14.6186 543.239 -15.5113 546.103 -16.1448 549.093C-17.5982 551.18 -18.8363 553.436 -19.8593 555.831C-21.1407 558.83 -22.0835 562.044 -22.6903 565.413C-30.1823 569.027 -35.5047 575.031 -38.664 582.429C-42.0336 590.319 -42.9348 599.773 -41.4198 609.578C-53.9309 611.78 -62.3338 619.222 -66.6442 629.298C-71.4952 640.638 -71.1456 655.265 -65.7572 669.448C-54.97 697.84 -23.9542 724.565 26.4321 719.998C56.0166 717.317 74.2497 710.424 85.2919 701.135C96.3558 691.828 100.137 680.171 100.942 668.137C101.022 666.95 101.072 665.759 101.098 664.565C107.024 661.926 111.865 658.905 115.806 655.585C120.359 651.748 123.698 647.52 126.115 643.033C133.021 640.106 138.587 636.709 143.055 632.945C144.697 631.562 146.189 630.131 147.545 628.656C151.518 626.485 154.961 624.131 157.94 621.623C170.412 611.123 174.676 597.973 175.584 584.389C176.235 574.652 175.16 564.64 174.149 555.218V555.218V555.218C173.754 551.536 173.369 547.945 173.1 544.496C172.136 532.136 172.668 521.654 179.238 514.894C190.04 503.778 193.686 493.008 192.415 483.672C191.146 474.346 184.984 466.573 176.423 461.413C159.318 451.104 132.418 451.094 114.909 470.04C110.265 475.066 106.424 479.637 102.956 483.764L102.955 483.765L102.954 483.766L102.954 483.766C101.187 485.87 99.5171 487.858 97.8865 489.732C93.0442 495.298 88.5259 499.895 82.772 503.675C71.2674 511.234 54.7322 515.588 20.6166 517.641C3.3639 518.68 -7.9851 527.719 -13.4651 540.54ZM-65.7248 629.691C-61.5499 619.932 -53.4326 612.712 -41.2594 610.565C-40.5384 614.789 -39.3713 619.071 -37.762 623.314C-37.3626 624.367 -36.9359 625.418 -36.482 626.465C-36.849 627.152 -37.1878 627.858 -37.4983 628.582C-41.1458 637.089 -40.8788 648.05 -36.8363 658.666C-28.7407 679.925 -5.46953 699.919 32.3055 696.504C54.4639 694.5 68.1429 689.347 76.4374 682.385C80.8851 678.653 83.7666 674.415 85.5773 669.902C91.0023 668.481 95.8175 666.84 100.087 665.007C100.059 666.03 100.013 667.052 99.9447 668.07C99.1516 679.924 95.4435 691.289 84.6481 700.37C73.831 709.469 55.8349 716.33 26.3418 719.003C-23.5952 723.528 -54.1936 697.068 -64.8224 669.092C-70.142 655.091 -70.4509 640.739 -65.7248 629.691ZM86.0138 668.752C91.2916 667.338 95.9687 665.713 100.11 663.908C100.173 659.469 99.9003 655.005 99.5062 650.599C95.9791 651.24 92.2538 651.808 88.3198 652.299C88.3496 654.089 88.3173 655.877 88.1984 657.65C87.9446 661.435 87.2964 665.173 86.0138 668.752ZM87.3227 652.421C87.3487 654.146 87.3155 655.87 87.2007 657.583C86.9364 661.524 86.2391 665.39 84.8325 669.062C76.66 671.168 67.0833 672.782 55.8735 673.8C7.21367 678.217 -23.3894 653.65 -35.369 626.514C-31.5273 619.648 -24.6686 614.938 -14.6914 614.339C-13.4843 614.267 -12.3097 614.19 -11.1666 614.109C4.52075 638.164 35.0638 657.27 79.9402 653.198C82.4782 652.968 84.9383 652.708 87.3227 652.421ZM88.2968 651.294C92.2099 650.804 95.9122 650.237 99.4146 649.599C99.1909 647.208 98.9361 644.836 98.6849 642.497L98.6849 642.497L98.6509 642.18C96.3461 642.452 93.9746 642.698 91.5347 642.92C90.263 643.035 89.0022 643.133 87.7524 643.213C88.008 645.877 88.218 648.585 88.2968 651.294ZM86.7533 643.274C87.0129 645.965 87.2252 648.691 87.3011 651.416C84.8966 651.707 82.4137 651.969 79.8498 652.202C35.6408 656.214 5.55421 637.56 -10.0249 614.025C-4.72752 613.628 -0.120972 613.13 3.92477 612.522C21.1893 631.669 48.8991 645.438 86.7533 643.274ZM87.6547 642.217C88.9068 642.137 90.17 642.039 91.4444 641.924C93.8798 641.703 96.2458 641.457 98.5443 641.186C98.2423 638.361 97.9552 635.589 97.7449 632.895C96.8932 621.984 97.2991 612.283 103.447 605.963C112.88 596.264 115.938 587.006 114.862 579.111C113.785 571.209 108.55 564.55 101.142 560.089C86.3092 551.156 62.9866 551.166 47.8263 567.557C43.7245 571.992 40.3516 576.004 37.2881 579.647L37.2879 579.647L37.2878 579.648L37.2869 579.649L37.2856 579.65C35.7164 581.516 34.2284 583.286 32.7652 584.967C28.4557 589.916 24.3863 594.061 19.1817 597.478C14.0928 600.818 7.94022 603.448 -0.552063 605.477C0.959908 607.515 2.58013 609.51 4.30836 611.451C14.7949 609.828 21.3314 607.446 26.3873 604.135C30.184 601.648 33.1685 598.623 36.3763 594.947C37.4542 593.711 38.5602 592.399 39.7311 591.01L39.7314 591.009C42.0332 588.278 44.5858 585.249 47.6686 581.924C59.3428 569.33 77.2726 569.341 88.673 576.19C94.3821 579.621 98.5088 584.799 99.3596 591.029C100.212 597.268 97.7623 604.438 90.574 611.812C86.2763 616.221 85.9113 623.075 86.5509 631.251C86.7285 633.521 86.9834 635.889 87.2449 638.319L87.245 638.319C87.3832 639.603 87.5232 640.904 87.6547 642.217ZM5.1088 612.338C15.3112 610.703 21.8321 608.314 26.9352 604.971C30.8456 602.41 33.9009 599.304 37.1297 595.604C38.2281 594.345 39.3436 593.022 40.5194 591.626L40.5198 591.626C42.812 588.906 45.333 585.914 48.402 582.604C59.7042 570.411 77.0964 570.401 88.158 577.048C93.6799 580.365 97.5693 585.31 98.3689 591.164C99.1672 597.011 96.9013 603.889 89.8579 611.114C85.2117 615.881 84.9167 623.183 85.554 631.329C85.7363 633.659 85.9951 636.064 86.259 638.515L86.2591 638.516L86.2592 638.516C86.393 639.759 86.5281 641.014 86.6551 642.278C49.4556 644.394 22.1991 631.007 5.1088 612.338ZM3.13 611.628C1.44585 609.708 -0.135017 607.737 -1.61231 605.724C-5.20512 606.543 -9.20712 607.259 -13.7086 607.881C-12.7642 609.63 -11.7441 611.361 -10.6484 613.069C-5.41673 612.686 -0.865829 612.209 3.13 611.628ZM-11.7827 613.149C-12.8498 611.462 -13.8445 609.752 -14.7667 608.024C-20.9584 608.846 -28.0759 609.495 -36.3424 609.992C-37.6951 610.074 -39.0051 610.212 -40.2727 610.403C-39.5635 614.557 -38.4147 618.774 -36.827 622.96C-36.5217 623.765 -36.2001 624.569 -35.8623 625.371C-31.7895 618.565 -24.7521 613.941 -14.7513 613.341C-13.7386 613.28 -12.7493 613.216 -11.7827 613.149ZM-35.9614 627.638C-23.5907 654.872 7.29958 679.213 55.9639 674.796C66.8852 673.804 76.285 672.247 84.3655 670.213C82.5955 674.337 79.8733 678.196 75.7945 681.62C67.725 688.392 54.2828 693.512 32.2155 695.508C-5.1119 698.883 -27.9652 679.152 -35.9017 658.31C-39.8752 647.875 -40.1013 637.191 -36.5792 628.976C-36.3848 628.523 -36.1789 628.076 -35.9614 627.638ZM115.161 654.82C111.394 657.995 106.771 660.902 101.115 663.461C101.154 659.108 100.88 654.727 100.494 650.417C109.902 648.654 117.877 646.367 124.626 643.648C122.32 647.63 119.237 651.386 115.161 654.82ZM125.4 642.249C118.509 645.137 110.261 647.564 100.402 649.417C100.177 647.015 99.9218 644.637 99.6709 642.301L99.6708 642.3L99.6451 642.061C110.488 640.74 119.838 638.869 127.889 636.532C127.205 638.477 126.382 640.386 125.4 642.249ZM128.278 635.376C120.146 637.784 110.639 639.714 99.5385 641.067C99.2362 638.241 98.9497 635.481 98.7418 632.817C97.8878 621.876 98.3636 612.623 104.163 606.66C113.741 596.812 116.982 587.262 115.853 578.976C114.725 570.699 109.253 563.806 101.658 559.232C86.4855 550.095 62.6243 550.085 47.0922 566.878C42.9764 571.328 39.5719 575.377 36.4987 579.032L36.4986 579.032L36.4985 579.032L36.4983 579.032L36.4956 579.035C34.9317 580.895 33.4535 582.653 32.011 584.31C27.7224 589.236 23.7238 593.3 18.633 596.642C13.5779 599.96 7.42361 602.581 -1.19319 604.601C-5.59811 598.502 -9.04515 592.036 -11.5279 585.496C-14.2555 578.311 -15.8175 571.042 -16.2103 564.078C-13.631 563.384 -10.8488 562.932 -7.86245 562.753C22.8917 560.9 38.0036 556.968 48.5884 550.007C53.8793 546.528 58.0162 542.307 62.3978 537.266C63.8846 535.555 65.3967 533.754 66.9913 531.854L66.9931 531.852L66.9942 531.851L66.9958 531.849L66.996 531.849L66.997 531.848C70.1117 528.137 73.5412 524.051 77.7115 519.534C93.129 502.836 116.847 502.827 131.931 511.926C139.464 516.47 144.79 523.255 145.885 531.307C146.979 539.352 143.868 548.784 134.276 558.664C128.028 565.099 127.615 574.974 128.481 586.088C128.728 589.255 129.079 592.527 129.437 595.866C130.344 604.332 131.298 613.226 130.718 621.916C130.411 626.508 129.675 631.028 128.278 635.376ZM-12.4628 585.851C-9.99492 592.352 -6.58821 598.776 -2.2506 604.843C-5.79927 605.637 -9.75567 606.334 -14.2086 606.94C-15.6504 604.182 -16.9051 601.384 -17.9723 598.571C-22.2027 587.422 -23.4809 576.063 -21.7941 566.095C-20.3439 565.423 -18.8112 564.842 -17.1956 564.358C-16.7756 571.368 -15.1927 578.659 -12.4628 585.851ZM-18.9072 598.926C-17.8675 601.666 -16.6523 604.392 -15.2626 607.081C-21.3339 607.875 -28.3093 608.508 -36.4024 608.994C-37.7889 609.078 -39.1325 609.219 -40.4331 609.416C-41.9218 599.772 -41.0283 590.511 -37.7444 582.822C-34.7721 575.861 -29.835 570.169 -22.894 566.63C-24.44 576.63 -23.0898 587.902 -18.9072 598.926ZM126.836 641.632C133.147 638.851 138.269 635.669 142.411 632.181C143.204 631.512 143.962 630.832 144.686 630.141C140.137 632.387 134.957 634.413 129.065 636.184C128.448 638.033 127.711 639.851 126.836 641.632ZM129.435 635.027C136.191 632.955 141.975 630.545 146.919 627.858C155.072 618.922 158.101 608.384 158.831 597.463C159.444 588.296 158.437 578.913 157.479 569.986V569.986V569.986V569.985V569.985C157.102 566.464 156.732 563.014 156.472 559.676C155.558 547.955 155.996 537.554 162.577 530.778C172.7 520.355 175.988 510.4 174.832 501.907C173.675 493.404 168.05 486.243 160.098 481.448C144.176 471.847 119.14 471.857 102.865 489.476C98.4647 494.24 94.8455 498.55 91.5591 502.464C89.8753 504.47 88.2788 506.371 86.7094 508.176C82.0876 513.491 77.7253 517.94 72.1469 521.607C60.9869 528.943 45.051 533.089 12.6078 535.043C-0.179703 535.813 -9.42279 541.295 -15.2078 549.498C-16.0983 553.788 -16.4486 558.348 -16.2596 563.056C-13.6748 562.376 -10.8958 561.933 -7.92259 561.754C22.8054 559.903 37.6879 555.978 48.039 549.172C53.2161 545.767 57.2824 541.627 61.6431 536.61C63.1108 534.921 64.6147 533.13 66.206 531.234L66.2063 531.234C69.3309 527.511 72.7922 523.388 76.9768 518.856C92.7661 501.755 117.023 501.765 132.447 511.07C140.168 515.727 145.73 522.746 146.876 531.173C148.023 539.608 144.73 549.332 134.993 559.361C129.093 565.438 128.61 574.866 129.478 586.01C129.72 589.117 130.067 592.353 130.423 595.671C131.333 604.167 132.302 613.2 131.715 621.983C131.419 626.413 130.728 630.792 129.435 635.027ZM-17.2489 563.331C-17.4248 559.321 -17.2168 555.411 -16.6221 551.671C-17.4912 553.12 -18.2636 554.641 -18.9397 556.223C-20.1024 558.945 -20.9812 561.853 -21.5764 564.9C-20.2029 564.298 -18.7604 563.773 -17.2489 563.331Z" fill="white" fill-opacity="0.2"/>
</g>
<defs>
<linearGradient id="paint0_linear_39_3458" x1="181.757" y1="0" x2="181.757" y2="606" gradientUnits="userSpaceOnUse">
<stop stop-color="#446381"/>
<stop offset="1" stop-color="#826F8C"/>
</linearGradient>
</defs>
</svg>
