<svg width="193" height="152" viewBox="0 0 193 152" fill="none" xmlns="http://www.w3.org/2000/svg">
<path fill-rule="evenodd" clip-rule="evenodd" d="M175.906 8.26954C159.141 -1.83504 132.78 -1.82514 115.643 16.7186C111.012 21.73 107.203 26.2645 103.744 30.3817L103.742 30.3835C101.971 32.4919 100.292 34.4908 98.641 36.3882C93.7777 41.9787 89.1887 46.6561 83.3211 50.5111C71.5829 58.2232 54.8184 62.5843 20.6767 64.6394C3.80077 65.6551 -7.21485 74.4616 -12.5455 86.9334C-13.3862 88.9001 -14.0859 90.9593 -14.6447 93.0947C-8.63929 85.6659 0.42086 80.7753 12.5477 80.045C44.9648 78.0928 60.6713 73.9537 71.5975 66.7716C77.0622 63.1794 81.3539 58.8112 85.9547 53.5198C87.5036 51.7384 89.0905 49.8487 90.7694 47.8494C94.0655 43.9243 97.7162 39.5769 102.13 34.7978C118.777 16.7755 144.352 16.7853 160.614 26.5918C168.754 31.5003 174.615 38.8954 175.823 47.7717C177.032 56.6565 173.563 66.9028 163.294 77.4746C157.06 83.8931 156.553 93.8475 157.469 105.599C157.724 108.877 158.09 112.29 158.465 115.789C159.426 124.748 160.448 134.27 159.829 143.529C159.146 153.754 156.464 163.722 149.497 172.387C152.406 170.644 154.995 168.796 157.296 166.858C169.5 156.584 173.69 143.726 174.586 130.322C175.231 120.679 174.171 110.806 173.163 101.414L173.163 101.414V101.414V101.414C172.766 97.7108 172.377 94.0829 172.103 90.5734C171.141 78.2441 171.604 67.3146 178.521 60.1968C189.178 49.2298 192.642 38.7513 191.425 29.8072C190.206 20.8546 184.28 13.3165 175.906 8.26954ZM-13.4651 86.5403C-14.6186 89.2391 -15.5113 92.1032 -16.1448 95.0932C-17.5982 97.18 -18.8363 99.436 -19.8593 101.831C-21.1407 104.83 -22.0835 108.044 -22.6903 111.413C-30.1823 115.027 -35.5047 121.031 -38.664 128.429C-42.0336 136.319 -42.9348 145.773 -41.4198 155.578C-53.9309 157.78 -62.3338 165.222 -66.6442 175.298C-71.4952 186.638 -71.1456 201.265 -65.7572 215.448C-54.97 243.84 -23.9542 270.565 26.4321 265.998C56.0166 263.317 74.2497 256.424 85.2919 247.135C96.3558 237.828 100.137 226.171 100.942 214.137C101.022 212.95 101.072 211.759 101.098 210.565C107.024 207.926 111.865 204.905 115.806 201.585C120.359 197.748 123.698 193.52 126.115 189.033C133.021 186.106 138.587 182.709 143.055 178.945C144.697 177.562 146.189 176.131 147.545 174.656C151.518 172.485 154.961 170.131 157.94 167.623C170.412 157.123 174.676 143.973 175.584 130.389C176.235 120.652 175.16 110.64 174.149 101.218V101.218V101.218C173.754 97.5365 173.369 93.9452 173.1 90.4957C172.136 78.1362 172.668 67.6542 179.238 60.8937C190.04 49.7777 193.686 39.0077 192.415 29.6723C191.146 20.3455 184.984 12.5731 176.423 7.41308C159.318 -2.89632 132.418 -2.90621 114.909 16.0399C110.265 21.0655 106.424 25.6367 102.956 29.7645L102.955 29.7654L102.954 29.7662L102.954 29.7665C101.187 31.8696 99.5171 33.8575 97.8865 35.7319C93.0442 41.2983 88.5259 45.8951 82.772 49.6753C71.2674 57.2339 54.7322 61.5877 20.6166 63.6412C3.3639 64.6796 -7.9851 73.7193 -13.4651 86.5403ZM-65.7248 175.691C-61.5499 165.932 -53.4326 158.712 -41.2594 156.565C-40.5384 160.789 -39.3713 165.071 -37.762 169.314C-37.3626 170.367 -36.9359 171.418 -36.482 172.465C-36.849 173.152 -37.1878 173.858 -37.4983 174.582C-41.1458 183.089 -40.8788 194.05 -36.8363 204.666C-28.7407 225.925 -5.46953 245.919 32.3055 242.504C54.4639 240.5 68.1429 235.347 76.4374 228.385C80.8851 224.653 83.7666 220.415 85.5773 215.902C91.0023 214.481 95.8175 212.84 100.087 211.007C100.059 212.03 100.013 213.052 99.9447 214.07C99.1516 225.924 95.4435 237.289 84.6481 246.37C73.831 255.469 55.8349 262.33 26.3418 265.003C-23.5952 269.528 -54.1936 243.068 -64.8224 215.092C-70.142 201.091 -70.4509 186.739 -65.7248 175.691ZM86.0138 214.752C91.2916 213.338 95.9687 211.713 100.11 209.908C100.173 205.469 99.9003 201.005 99.5062 196.599C95.9791 197.24 92.2538 197.808 88.3198 198.299C88.3496 200.089 88.3173 201.877 88.1984 203.65C87.9446 207.435 87.2964 211.173 86.0138 214.752ZM87.3227 198.421C87.3487 200.146 87.3155 201.87 87.2007 203.583C86.9364 207.524 86.2391 211.39 84.8325 215.062C76.66 217.168 67.0833 218.782 55.8735 219.8C7.21367 224.217 -23.3894 199.65 -35.369 172.514C-31.5273 165.648 -24.6686 160.938 -14.6914 160.339C-13.4843 160.267 -12.3097 160.19 -11.1666 160.109C4.52075 184.164 35.0638 203.27 79.9402 199.198C82.4782 198.968 84.9383 198.708 87.3227 198.421ZM88.2968 197.294C92.2099 196.804 95.9122 196.237 99.4146 195.599C99.1909 193.208 98.9361 190.836 98.6849 188.497L98.6849 188.497L98.6509 188.18C96.3461 188.452 93.9746 188.698 91.5347 188.92C90.263 189.035 89.0022 189.133 87.7524 189.213C88.008 191.877 88.218 194.585 88.2968 197.294ZM86.7533 189.274C87.0129 191.965 87.2252 194.691 87.3011 197.416C84.8966 197.707 82.4137 197.969 79.8498 198.202C35.6408 202.214 5.55421 183.56 -10.0249 160.025C-4.72752 159.628 -0.120972 159.13 3.92477 158.522C21.1893 177.669 48.8991 191.438 86.7533 189.274ZM87.6547 188.217C88.9068 188.137 90.17 188.039 91.4444 187.924C93.8798 187.703 96.2458 187.457 98.5443 187.186C98.2423 184.361 97.9552 181.589 97.7449 178.895C96.8932 167.984 97.2991 158.283 103.447 151.963C112.88 142.264 115.938 133.006 114.862 125.111C113.785 117.209 108.55 110.55 101.142 106.089C86.3092 97.1564 62.9866 97.1664 47.8263 113.557C43.7245 117.992 40.3516 122.004 37.2881 125.647L37.2879 125.647L37.2878 125.648L37.2869 125.649L37.2856 125.65C35.7164 127.516 34.2284 129.286 32.7652 130.967C28.4557 135.916 24.3863 140.061 19.1817 143.478C14.0928 146.818 7.94022 149.448 -0.552063 151.477C0.959908 153.515 2.58013 155.51 4.30836 157.451C14.7949 155.828 21.3314 153.446 26.3873 150.135C30.184 147.648 33.1685 144.623 36.3763 140.947C37.4542 139.711 38.5602 138.399 39.7311 137.01L39.7314 137.009C42.0332 134.278 44.5858 131.249 47.6686 127.924C59.3428 115.33 77.2726 115.341 88.673 122.19C94.3821 125.621 98.5088 130.799 99.3596 137.029C100.212 143.268 97.7623 150.438 90.574 157.812C86.2763 162.221 85.9113 169.075 86.5509 177.251C86.7285 179.521 86.9834 181.889 87.2449 184.319L87.245 184.319C87.3832 185.603 87.5232 186.904 87.6547 188.217ZM5.1088 158.338C15.3112 156.703 21.8321 154.314 26.9352 150.971C30.8456 148.41 33.9009 145.304 37.1297 141.604C38.2281 140.345 39.3436 139.022 40.5194 137.626L40.5198 137.626C42.812 134.906 45.333 131.914 48.402 128.604C59.7042 116.411 77.0964 116.401 88.158 123.048C93.6799 126.365 97.5693 131.31 98.3689 137.164C99.1672 143.011 96.9013 149.889 89.8579 157.114C85.2117 161.881 84.9167 169.183 85.554 177.329C85.7363 179.659 85.9951 182.064 86.259 184.515L86.2591 184.516L86.2592 184.516C86.393 185.759 86.5281 187.014 86.6551 188.278C49.4556 190.394 22.1991 177.007 5.1088 158.338ZM3.13 157.628C1.44585 155.708 -0.135017 153.737 -1.61231 151.724C-5.20512 152.543 -9.20712 153.259 -13.7086 153.881C-12.7642 155.63 -11.7441 157.361 -10.6484 159.069C-5.41673 158.686 -0.865829 158.209 3.13 157.628ZM-11.7827 159.149C-12.8498 157.462 -13.8445 155.752 -14.7667 154.024C-20.9584 154.846 -28.0759 155.495 -36.3424 155.992C-37.6951 156.074 -39.0051 156.212 -40.2727 156.403C-39.5635 160.557 -38.4147 164.774 -36.827 168.96C-36.5217 169.765 -36.2001 170.569 -35.8623 171.371C-31.7895 164.565 -24.7521 159.941 -14.7513 159.341C-13.7386 159.28 -12.7493 159.216 -11.7827 159.149ZM-35.9614 173.638C-23.5907 200.872 7.29958 225.213 55.9639 220.796C66.8852 219.804 76.285 218.247 84.3655 216.213C82.5955 220.337 79.8733 224.196 75.7945 227.62C67.725 234.392 54.2828 239.512 32.2155 241.508C-5.1119 244.883 -27.9652 225.152 -35.9017 204.31C-39.8752 193.875 -40.1013 183.191 -36.5792 174.976C-36.3848 174.523 -36.1789 174.076 -35.9614 173.638ZM115.161 200.82C111.394 203.995 106.771 206.902 101.115 209.461C101.154 205.108 100.88 200.727 100.494 196.417C109.902 194.654 117.877 192.367 124.626 189.648C122.32 193.63 119.237 197.386 115.161 200.82ZM125.4 188.249C118.509 191.137 110.261 193.564 100.402 195.417C100.177 193.015 99.9218 190.637 99.6709 188.301L99.6708 188.3L99.6451 188.061C110.488 186.74 119.838 184.869 127.889 182.532C127.205 184.477 126.382 186.386 125.4 188.249ZM128.278 181.376C120.146 183.784 110.639 185.714 99.5385 187.067C99.2362 184.241 98.9497 181.481 98.7418 178.817C97.8878 167.876 98.3636 158.623 104.163 152.66C113.741 142.812 116.982 133.262 115.853 124.976C114.725 116.699 109.253 109.806 101.658 105.232C86.4855 96.0953 62.6243 96.0853 47.0922 112.878C42.9764 117.328 39.5719 121.377 36.4987 125.032L36.4986 125.032L36.4985 125.032L36.4983 125.032L36.4956 125.035C34.9317 126.895 33.4535 128.653 32.011 130.31C27.7224 135.236 23.7238 139.3 18.633 142.642C13.5779 145.96 7.42361 148.581 -1.19319 150.601C-5.59811 144.502 -9.04515 138.036 -11.5279 131.496C-14.2555 124.311 -15.8175 117.042 -16.2103 110.078C-13.631 109.384 -10.8488 108.932 -7.86245 108.753C22.8917 106.9 38.0036 102.968 48.5884 96.0073C53.8793 92.5281 58.0162 88.3072 62.3978 83.2661C63.8846 81.5554 65.3967 79.754 66.9913 77.8543L66.9931 77.8521L66.9942 77.8508L66.9958 77.8489L66.996 77.8486L66.997 77.8475C70.1117 74.1367 73.5412 70.0509 77.7115 65.5343C93.129 48.8363 116.847 48.8265 131.931 57.9259C139.464 62.4703 144.79 69.2546 145.885 77.3075C146.979 85.3519 143.868 94.7844 134.276 104.664C128.028 111.099 127.615 120.974 128.481 132.088C128.728 135.255 129.079 138.527 129.437 141.866C130.344 150.332 131.298 159.226 130.718 167.916C130.411 172.508 129.675 177.028 128.278 181.376ZM-12.4628 131.851C-9.99492 138.352 -6.58821 144.776 -2.2506 150.843C-5.79927 151.637 -9.75567 152.334 -14.2086 152.94C-15.6504 150.182 -16.9051 147.384 -17.9723 144.571C-22.2027 133.422 -23.4809 122.063 -21.7941 112.095C-20.3439 111.423 -18.8112 110.842 -17.1956 110.358C-16.7756 117.368 -15.1927 124.659 -12.4628 131.851ZM-18.9072 144.926C-17.8675 147.666 -16.6523 150.392 -15.2626 153.081C-21.3339 153.875 -28.3093 154.508 -36.4024 154.994C-37.7889 155.078 -39.1325 155.219 -40.4331 155.416C-41.9218 145.772 -41.0283 136.511 -37.7444 128.822C-34.7721 121.861 -29.835 116.169 -22.894 112.63C-24.44 122.63 -23.0898 133.902 -18.9072 144.926ZM126.836 187.632C133.147 184.851 138.269 181.669 142.411 178.181C143.204 177.512 143.962 176.832 144.686 176.141C140.137 178.387 134.957 180.413 129.065 182.184C128.448 184.033 127.711 185.851 126.836 187.632ZM129.435 181.027C136.191 178.955 141.975 176.545 146.919 173.858C155.072 164.922 158.101 154.384 158.831 143.463C159.444 134.296 158.437 124.913 157.479 115.986V115.986V115.986V115.985V115.985C157.102 112.464 156.732 109.014 156.472 105.676C155.558 93.9555 155.996 83.5537 162.577 76.7779C172.7 66.3552 175.988 56.4003 174.832 47.9065C173.675 39.4042 168.05 32.2435 160.098 27.4481C144.176 17.8467 119.14 17.8566 102.865 35.4763C98.4647 40.2403 94.8455 44.5504 91.5591 48.4644C89.8753 50.4696 88.2788 52.3709 86.7094 54.1759C82.0876 59.4914 77.7253 63.9403 72.1469 67.6072C60.9869 74.943 45.051 79.0894 12.6078 81.0432C-0.179703 81.8132 -9.42279 87.2953 -15.2078 95.4984C-16.0983 99.7883 -16.4486 104.348 -16.2596 109.056C-13.6748 108.376 -10.8958 107.933 -7.92259 107.754C22.8054 105.903 37.6879 101.978 48.039 95.1717C53.2161 91.7674 57.2824 87.6272 61.6431 82.6101C63.1108 80.9214 64.6147 79.1297 66.206 77.234L66.2063 77.2337C69.3309 73.5114 72.7922 69.388 76.9768 64.8559C92.7661 47.7553 117.023 47.7651 132.447 57.0697C140.168 61.7272 145.73 68.746 146.876 77.1727C148.023 85.608 144.73 95.3318 134.993 105.361C129.093 111.438 128.61 120.866 129.478 132.01C129.72 135.117 130.067 138.353 130.423 141.671C131.333 150.167 132.302 159.2 131.715 167.983C131.419 172.413 130.728 176.792 129.435 181.027ZM-17.2489 109.331C-17.4248 105.321 -17.2168 101.411 -16.6221 97.6713C-17.4912 99.1203 -18.2636 100.641 -18.9397 102.223C-20.1024 104.945 -20.9812 107.853 -21.5764 110.9C-20.2029 110.298 -18.7604 109.773 -17.2489 109.331Z" fill="white" fill-opacity="0.2"/>
</svg>
